<svg width="415" height="64" viewBox="0 0 415 64" fill="none" xmlns="http://www.w3.org/2000/svg">
<path d="M106.5 14.1181C107.391 14.1181 108.107 14.4045 108.648 14.9771C109.188 15.518 109.459 16.2497 109.459 17.1723V45.4231C109.459 46.3139 109.204 47.0138 108.695 47.5228C108.186 48.0318 107.518 48.2863 106.691 48.2863C105.864 48.2863 105.212 48.0318 104.734 47.5228C104.257 47.0138 104.019 46.3139 104.019 45.4231V25.762L95.906 41.1282C95.5243 41.8281 95.1107 42.353 94.6653 42.703C94.2199 43.0211 93.695 43.1802 93.0905 43.1802C92.486 43.1802 91.9611 43.0211 91.5157 42.703C91.0703 42.3848 90.6567 41.8599 90.275 41.1282L82.1147 26.0007V45.4231C82.1147 46.282 81.8602 46.982 81.3512 47.5228C80.874 48.0318 80.2218 48.2863 79.3946 48.2863C78.5674 48.2863 77.9153 48.0318 77.438 47.5228C76.9608 47.0138 76.7222 46.3139 76.7222 45.4231V17.1723C76.7222 16.2497 76.9767 15.518 77.4858 14.9771C78.0266 14.4045 78.7424 14.1181 79.6332 14.1181C80.874 14.1181 81.8443 14.8021 82.5442 16.1701L93.1382 36.3561L103.685 16.1701C104.384 14.8021 105.323 14.1181 106.5 14.1181ZM119.185 48.2863C118.326 48.2863 117.61 48.0477 117.038 47.5705C116.497 47.0615 116.227 46.3457 116.227 45.4231V27.0028C116.227 26.0802 116.497 25.3803 117.038 24.9031C117.61 24.4259 118.326 24.1873 119.185 24.1873C120.044 24.1873 120.76 24.4259 121.333 24.9031C121.905 25.3803 122.192 26.0802 122.192 27.0028V45.4231C122.192 46.3457 121.905 47.0615 121.333 47.5705C120.76 48.0477 120.044 48.2863 119.185 48.2863ZM119.185 19.9401C118.104 19.9401 117.245 19.6538 116.608 19.0811C115.972 18.4767 115.654 17.6972 115.654 16.7428C115.654 15.7884 115.972 15.0248 116.608 14.4522C117.245 13.8795 118.104 13.5932 119.185 13.5932C120.235 13.5932 121.078 13.8795 121.714 14.4522C122.383 15.0248 122.717 15.7884 122.717 16.7428C122.717 17.6972 122.398 18.4767 121.762 19.0811C121.126 19.6538 120.267 19.9401 119.185 19.9401ZM136.79 48.3818C133.322 48.3818 130.522 47.6978 128.391 46.3298C127.373 45.7253 126.864 44.8663 126.864 43.7528C126.864 43.1166 127.039 42.6075 127.389 42.2258C127.739 41.8122 128.168 41.6054 128.677 41.6054C129.218 41.6054 129.966 41.8599 130.92 42.3689C131.938 42.8461 132.861 43.212 133.688 43.4665C134.547 43.721 135.629 43.8483 136.933 43.8483C138.269 43.8483 139.303 43.6256 140.035 43.1802C140.798 42.7348 141.18 42.1144 141.18 41.3191C141.18 40.7782 141.021 40.3487 140.703 40.0306C140.417 39.7125 139.876 39.4261 139.08 39.1716C138.317 38.8853 137.14 38.5672 135.549 38.2172C132.718 37.6446 130.682 36.8333 129.441 35.7834C128.232 34.7336 127.627 33.286 127.627 31.4408C127.627 30.041 128.041 28.7844 128.868 27.6709C129.695 26.5256 130.825 25.6507 132.256 25.0462C133.72 24.41 135.374 24.0918 137.219 24.0918C138.556 24.0918 139.844 24.2668 141.085 24.6167C142.325 24.9349 143.439 25.4121 144.425 26.0484C145.443 26.6847 145.952 27.5277 145.952 28.5776C145.952 29.2139 145.777 29.7547 145.427 30.2001C145.077 30.6137 144.648 30.8205 144.139 30.8205C143.789 30.8205 143.439 30.7568 143.089 30.6296C142.771 30.4705 142.357 30.2478 141.848 29.9615C140.926 29.4843 140.13 29.1343 139.462 28.9116C138.794 28.6571 137.967 28.5299 136.981 28.5299C135.804 28.5299 134.865 28.7685 134.165 29.2457C133.497 29.7229 133.163 30.3751 133.163 31.2022C133.163 31.9976 133.513 32.602 134.213 33.0156C134.913 33.4292 136.265 33.8428 138.269 34.2564C140.401 34.7018 142.071 35.2108 143.28 35.7834C144.489 36.3561 145.348 37.0719 145.857 37.9309C146.398 38.7899 146.668 39.8874 146.668 41.2236C146.668 43.387 145.761 45.1208 143.948 46.4252C142.166 47.7296 139.78 48.3818 136.79 48.3818ZM159.951 48.3818C156.484 48.3818 153.684 47.6978 151.552 46.3298C150.534 45.7253 150.025 44.8663 150.025 43.7528C150.025 43.1166 150.2 42.6075 150.55 42.2258C150.9 41.8122 151.33 41.6054 151.839 41.6054C152.38 41.6054 153.127 41.8599 154.082 42.3689C155.1 42.8461 156.022 43.212 156.849 43.4665C157.708 43.721 158.79 43.8483 160.094 43.8483C161.431 43.8483 162.465 43.6256 163.196 43.1802C163.96 42.7348 164.342 42.1144 164.342 41.3191C164.342 40.7782 164.183 40.3487 163.864 40.0306C163.578 39.7125 163.037 39.4261 162.242 39.1716C161.478 38.8853 160.301 38.5672 158.711 38.2172C155.879 37.6446 153.843 36.8333 152.602 35.7834C151.393 34.7336 150.789 33.286 150.789 31.4408C150.789 30.041 151.202 28.7844 152.03 27.6709C152.857 26.5256 153.986 25.6507 155.418 25.0462C156.881 24.41 158.536 24.0918 160.381 24.0918C161.717 24.0918 163.005 24.2668 164.246 24.6167C165.487 24.9349 166.6 25.4121 167.587 26.0484C168.605 26.6847 169.114 27.5277 169.114 28.5776C169.114 29.2139 168.939 29.7547 168.589 30.2001C168.239 30.6137 167.809 30.8205 167.3 30.8205C166.95 30.8205 166.6 30.7568 166.25 30.6296C165.932 30.4705 165.519 30.2478 165.01 29.9615C164.087 29.4843 163.292 29.1343 162.624 28.9116C161.956 28.6571 161.128 28.5299 160.142 28.5299C158.965 28.5299 158.027 28.7685 157.327 29.2457C156.659 29.7229 156.324 30.3751 156.324 31.2022C156.324 31.9976 156.674 32.602 157.374 33.0156C158.074 33.4292 159.426 33.8428 161.431 34.2564C163.562 34.7018 165.232 35.2108 166.441 35.7834C167.65 36.3561 168.509 37.0719 169.018 37.9309C169.559 38.7899 169.829 39.8874 169.829 41.2236C169.829 43.387 168.923 45.1208 167.109 46.4252C165.328 47.7296 162.942 48.3818 159.951 48.3818ZM177.625 48.2863C176.766 48.2863 176.05 48.0477 175.477 47.5705C174.937 47.0615 174.666 46.3457 174.666 45.4231V27.0028C174.666 26.0802 174.937 25.3803 175.477 24.9031C176.05 24.4259 176.766 24.1873 177.625 24.1873C178.484 24.1873 179.2 24.4259 179.772 24.9031C180.345 25.3803 180.631 26.0802 180.631 27.0028V45.4231C180.631 46.3457 180.345 47.0615 179.772 47.5705C179.2 48.0477 178.484 48.2863 177.625 48.2863ZM177.625 19.9401C176.543 19.9401 175.684 19.6538 175.048 19.0811C174.412 18.4767 174.093 17.6972 174.093 16.7428C174.093 15.7884 174.412 15.0248 175.048 14.4522C175.684 13.8795 176.543 13.5932 177.625 13.5932C178.675 13.5932 179.518 13.8795 180.154 14.4522C180.822 15.0248 181.156 15.7884 181.156 16.7428C181.156 17.6972 180.838 18.4767 180.202 19.0811C179.565 19.6538 178.706 19.9401 177.625 19.9401ZM197.424 48.3818C195.038 48.3818 192.939 47.8887 191.125 46.9024C189.344 45.9162 187.96 44.5005 186.974 42.6553C185.987 40.81 185.494 38.6626 185.494 36.2129C185.494 33.7633 185.987 31.6317 186.974 29.8183C187.96 27.9731 189.344 26.5574 191.125 25.5712C192.939 24.5849 195.038 24.0918 197.424 24.0918C199.811 24.0918 201.894 24.5849 203.676 25.5712C205.489 26.5574 206.873 27.9731 207.828 29.8183C208.814 31.6317 209.307 33.7633 209.307 36.2129C209.307 38.6626 208.814 40.81 207.828 42.6553C206.873 44.5005 205.489 45.9162 203.676 46.9024C201.894 47.8887 199.811 48.3818 197.424 48.3818ZM197.377 43.7528C199.317 43.7528 200.797 43.1166 201.815 41.844C202.833 40.5714 203.342 38.6944 203.342 36.2129C203.342 33.7633 202.833 31.9021 201.815 30.6296C200.797 29.3252 199.333 28.673 197.424 28.673C195.516 28.673 194.036 29.3252 192.986 30.6296C191.968 31.9021 191.459 33.7633 191.459 36.2129C191.459 38.6944 191.968 40.5714 192.986 41.844C194.004 43.1166 195.468 43.7528 197.377 43.7528ZM227.784 24.0918C230.584 24.0918 232.668 24.8872 234.036 26.4779C235.404 28.0686 236.088 30.4705 236.088 33.6837V45.4231C236.088 46.3139 235.817 47.0138 235.277 47.5228C234.767 48.0318 234.052 48.2863 233.129 48.2863C232.206 48.2863 231.475 48.0318 230.934 47.5228C230.393 47.0138 230.123 46.3139 230.123 45.4231V34.0178C230.123 32.2044 229.773 30.8841 229.073 30.0569C228.405 29.2298 227.339 28.8162 225.875 28.8162C224.158 28.8162 222.774 29.357 221.724 30.4387C220.706 31.5204 220.197 32.9679 220.197 34.7813V45.4231C220.197 46.3139 219.926 47.0138 219.385 47.5228C218.845 48.0318 218.113 48.2863 217.19 48.2863C216.268 48.2863 215.536 48.0318 214.995 47.5228C214.486 47.0138 214.232 46.3139 214.232 45.4231V26.9551C214.232 26.1279 214.502 25.4598 215.043 24.9508C215.584 24.4418 216.315 24.1873 217.238 24.1873C218.065 24.1873 218.733 24.4418 219.242 24.9508C219.783 25.428 220.054 26.0643 220.054 26.8596V28.1481C220.849 26.8437 221.915 25.8416 223.251 25.1417C224.587 24.4418 226.098 24.0918 227.784 24.0918ZM270.659 48.4295C267.414 48.4295 264.567 47.7296 262.117 46.3298C259.699 44.93 257.838 42.9257 256.534 40.3169C255.229 37.7082 254.577 34.654 254.577 31.1545C254.577 27.655 255.229 24.6167 256.534 22.0398C257.838 19.4311 259.699 17.4268 262.117 16.027C264.567 14.6272 267.414 13.9273 270.659 13.9273C272.759 13.9273 274.731 14.2454 276.576 14.8817C278.422 15.4861 280.06 16.3769 281.492 17.554C281.905 17.8722 282.192 18.2062 282.351 18.5562C282.51 18.9061 282.589 19.3356 282.589 19.8447C282.589 20.5446 282.398 21.1331 282.017 21.6103C281.635 22.0875 281.173 22.3261 280.633 22.3261C279.996 22.3261 279.344 22.1034 278.676 21.658C277.308 20.64 276.036 19.9401 274.858 19.5583C273.681 19.1447 272.377 18.938 270.945 18.938C267.637 18.938 265.123 19.9719 263.405 22.0398C261.719 24.1077 260.876 27.146 260.876 31.1545C260.876 35.1949 261.719 38.249 263.405 40.3169C265.123 42.3848 267.637 43.4188 270.945 43.4188C272.313 43.4188 273.57 43.212 274.715 42.7984C275.892 42.3848 277.213 41.6849 278.676 40.6987C278.994 40.5078 279.312 40.3487 279.63 40.2215C279.949 40.0942 280.283 40.0306 280.633 40.0306C281.173 40.0306 281.635 40.2692 282.017 40.7464C282.398 41.2236 282.589 41.8122 282.589 42.5121C282.589 42.9893 282.51 43.4188 282.351 43.8006C282.192 44.1505 281.905 44.4846 281.492 44.8027C280.06 45.9798 278.422 46.8865 276.576 47.5228C274.731 48.1273 272.759 48.4295 270.659 48.4295ZM297.62 48.3818C295.234 48.3818 293.134 47.8887 291.321 46.9024C289.539 45.9162 288.155 44.5005 287.169 42.6553C286.183 40.81 285.69 38.6626 285.69 36.2129C285.69 33.7633 286.183 31.6317 287.169 29.8183C288.155 27.9731 289.539 26.5574 291.321 25.5712C293.134 24.5849 295.234 24.0918 297.62 24.0918C300.006 24.0918 302.09 24.5849 303.871 25.5712C305.685 26.5574 307.069 27.9731 308.023 29.8183C309.009 31.6317 309.502 33.7633 309.502 36.2129C309.502 38.6626 309.009 40.81 308.023 42.6553C307.069 44.5005 305.685 45.9162 303.871 46.9024C302.09 47.8887 300.006 48.3818 297.62 48.3818ZM297.572 43.7528C299.513 43.7528 300.992 43.1166 302.01 41.844C303.028 40.5714 303.537 38.6944 303.537 36.2129C303.537 33.7633 303.028 31.9021 302.01 30.6296C300.992 29.3252 299.529 28.673 297.62 28.673C295.711 28.673 294.232 29.3252 293.182 30.6296C292.164 31.9021 291.655 33.7633 291.655 36.2129C291.655 38.6944 292.164 40.5714 293.182 41.844C294.2 43.1166 295.663 43.7528 297.572 43.7528ZM327.98 24.0918C330.779 24.0918 332.863 24.8872 334.231 26.4779C335.599 28.0686 336.283 30.4705 336.283 33.6837V45.4231C336.283 46.3139 336.013 47.0138 335.472 47.5228C334.963 48.0318 334.247 48.2863 333.324 48.2863C332.402 48.2863 331.67 48.0318 331.129 47.5228C330.588 47.0138 330.318 46.3139 330.318 45.4231V34.0178C330.318 32.2044 329.968 30.8841 329.268 30.0569C328.6 29.2298 327.534 28.8162 326.071 28.8162C324.353 28.8162 322.969 29.357 321.919 30.4387C320.901 31.5204 320.392 32.9679 320.392 34.7813V45.4231C320.392 46.3139 320.122 47.0138 319.581 47.5228C319.04 48.0318 318.308 48.2863 317.386 48.2863C316.463 48.2863 315.731 48.0318 315.19 47.5228C314.681 47.0138 314.427 46.3139 314.427 45.4231V26.9551C314.427 26.1279 314.697 25.4598 315.238 24.9508C315.779 24.4418 316.511 24.1873 317.433 24.1873C318.26 24.1873 318.929 24.4418 319.438 24.9508C319.978 25.428 320.249 26.0643 320.249 26.8596V28.1481C321.044 26.8437 322.11 25.8416 323.446 25.1417C324.782 24.4418 326.293 24.0918 327.98 24.0918ZM354.463 43.8483C356.054 43.9437 356.849 44.6595 356.849 45.9957C356.849 46.7593 356.531 47.3478 355.895 47.7614C355.29 48.1432 354.415 48.3022 353.27 48.2386L351.981 48.1432C346.637 47.7614 343.964 44.8981 343.964 39.5534V29.1502H341.578C340.719 29.1502 340.051 28.9593 339.574 28.5776C339.129 28.1958 338.906 27.6391 338.906 26.9073C338.906 26.1756 339.129 25.6189 339.574 25.2371C340.051 24.8553 340.719 24.6645 341.578 24.6645H343.964V20.2741C343.964 19.4152 344.235 18.7312 344.776 18.2221C345.316 17.7131 346.048 17.4586 346.971 17.4586C347.861 17.4586 348.577 17.7131 349.118 18.2221C349.659 18.7312 349.929 19.4152 349.929 20.2741V24.6645H353.986C354.845 24.6645 355.497 24.8553 355.942 25.2371C356.419 25.6189 356.658 26.1756 356.658 26.9073C356.658 27.6391 356.419 28.1958 355.942 28.5776C355.497 28.9593 354.845 29.1502 353.986 29.1502H349.929V39.9829C349.929 42.3371 351.011 43.5938 353.174 43.7528L354.463 43.8483ZM372.985 24.1873C373.812 24.1236 374.465 24.2986 374.942 24.7122C375.419 25.1258 375.658 25.7461 375.658 26.5733C375.658 27.4323 375.451 28.0686 375.037 28.4821C374.624 28.8957 373.876 29.1661 372.794 29.2934L371.363 29.4366C369.486 29.6274 368.102 30.2637 367.211 31.3454C366.352 32.4271 365.923 33.7792 365.923 35.4017V45.4231C365.923 46.3457 365.636 47.0615 365.064 47.5705C364.491 48.0477 363.775 48.2863 362.916 48.2863C362.057 48.2863 361.341 48.0477 360.769 47.5705C360.228 47.0615 359.958 46.3457 359.958 45.4231V26.9551C359.958 26.0643 360.228 25.3803 360.769 24.9031C361.341 24.4259 362.041 24.1873 362.868 24.1873C363.696 24.1873 364.364 24.4259 364.873 24.9031C365.382 25.3485 365.636 26.0007 365.636 26.8596V28.7685C366.241 27.3687 367.132 26.287 368.309 25.5234C369.518 24.7599 370.854 24.3304 372.317 24.235L372.985 24.1873ZM388.401 48.3818C386.015 48.3818 383.916 47.8887 382.102 46.9024C380.321 45.9162 378.937 44.5005 377.951 42.6553C376.964 40.81 376.471 38.6626 376.471 36.2129C376.471 33.7633 376.964 31.6317 377.951 29.8183C378.937 27.9731 380.321 26.5574 382.102 25.5712C383.916 24.5849 386.015 24.0918 388.401 24.0918C390.787 24.0918 392.871 24.5849 394.653 25.5712C396.466 26.5574 397.85 27.9731 398.805 29.8183C399.791 31.6317 400.284 33.7633 400.284 36.2129C400.284 38.6626 399.791 40.81 398.805 42.6553C397.85 44.5005 396.466 45.9162 394.653 46.9024C392.871 47.8887 390.787 48.3818 388.401 48.3818ZM388.354 43.7528C390.294 43.7528 391.774 43.1166 392.792 41.844C393.81 40.5714 394.319 38.6944 394.319 36.2129C394.319 33.7633 393.81 31.9021 392.792 30.6296C391.774 29.3252 390.31 28.673 388.401 28.673C386.493 28.673 385.013 29.3252 383.963 30.6296C382.945 31.9021 382.436 33.7633 382.436 36.2129C382.436 38.6944 382.945 40.5714 383.963 41.844C384.981 43.1166 386.445 43.7528 388.354 43.7528ZM408.167 48.2863C407.308 48.2863 406.592 48.0477 406.02 47.5705C405.479 47.0615 405.208 46.3457 405.208 45.4231V16.9337C405.208 16.0111 405.479 15.3112 406.02 14.834C406.592 14.3567 407.308 14.1181 408.167 14.1181C409.026 14.1181 409.742 14.3567 410.315 14.834C410.887 15.3112 411.174 16.0111 411.174 16.9337V45.4231C411.174 46.3457 410.887 47.0615 410.315 47.5705C409.742 48.0477 409.026 48.2863 408.167 48.2863Z" fill="white"/>
<path d="M0 13.6667C0 11.4575 1.79083 9.66666 4 9.66666H22.6667C24.875 9.66666 26.6667 11.4575 26.6667 13.6667V24.3333C26.6667 26.5417 24.875 28.3333 22.6667 28.3333H4C1.79083 28.3333 0 26.5417 0 24.3333V13.6667ZM32 13.6667C32 11.4575 33.7917 9.66666 36 9.66666H44C46.2083 9.66666 48 11.4575 48 13.6667V35C48 37.2083 46.2083 39 44 39H36C33.7917 39 32 37.2083 32 35V13.6667ZM24 32.3333C26.2083 32.3333 28 34.125 28 36.3333V43C28 45.2083 26.2083 47 24 47H9.33333C7.12417 47 5.33333 45.2083 5.33333 43V36.3333C5.33333 34.125 7.12417 32.3333 9.33333 32.3333H24Z" fill="white"/>
</svg>
